<svg width="197" height="56" viewBox="0 0 197 56" fill="none" xmlns="http://www.w3.org/2000/svg">
<path d="M93.4122 38.0643C93.4142 38.419 93.336 38.7695 93.1835 39.0899C93.031 39.4103 92.8082 39.6923 92.5316 39.9151C91.9755 40.4097 91.2553 40.681 90.5104 40.6762C90.0055 40.6767 89.5107 40.5364 89.0816 40.271C88.6104 39.9709 88.2455 39.5309 88.0379 39.013L85.1829 32.6513H68.4358L65.5782 39.013C65.369 39.5306 65.0033 39.9704 64.5321 40.271C64.0881 40.541 63.5772 40.6813 63.0573 40.6762C62.3208 40.6733 61.6105 40.4027 61.0595 39.9151C60.7775 39.6957 60.5494 39.4149 60.3929 39.0942C60.2363 38.7734 60.1554 38.4211 60.1563 38.0643C60.1598 37.6371 60.2564 37.2158 60.4395 36.8297L73.572 8.67918C73.838 8.06646 74.2979 7.55756 74.8813 7.23027C75.4541 6.90464 76.102 6.7334 76.7613 6.7334C77.4205 6.7334 78.0685 6.90464 78.6413 7.23027C79.2252 7.55683 79.6853 8.06596 79.9506 8.67918L93.1315 36.8297C93.3149 37.2156 93.4107 37.6372 93.4122 38.0643V38.0643ZM70.5314 27.9069H83.0898L76.8131 13.8062L70.5314 27.9069Z" fill="#00DD80"/>
<path d="M117.2 7.53867C117.481 7.78747 117.704 8.09514 117.852 8.43971C118 8.78427 118.07 9.15725 118.058 9.53197V37.9217C118.075 38.2994 118.012 38.6765 117.873 39.028C117.733 39.3796 117.521 39.6976 117.249 39.9609C116.644 40.4532 115.888 40.722 115.108 40.722C114.328 40.722 113.572 40.4532 112.967 39.9609C112.694 39.6981 112.481 39.3803 112.341 39.0286C112.201 38.677 112.138 38.2996 112.156 37.9217V36.7354C111.47 38.0218 110.419 39.0781 109.135 39.7725C107.755 40.5156 106.207 40.8909 104.639 40.8621C102.746 40.8919 100.886 40.3641 99.2917 39.3448C97.6845 38.2908 96.4124 36.8006 95.6253 35.0497C94.7197 33.0437 94.2725 30.8619 94.316 28.6622C94.2679 26.4859 94.7156 24.3272 95.6253 22.3488C96.4022 20.6249 97.673 19.1689 99.2776 18.1641C100.882 17.1594 102.749 16.6508 104.643 16.7024C106.197 16.6729 107.735 17.0317 109.115 17.7461C110.384 18.4105 111.427 19.4344 112.113 20.689V9.44027C112.099 9.08227 112.162 8.72542 112.297 8.39349C112.432 8.06157 112.637 7.76219 112.897 7.51533C113.48 7.00413 114.24 6.74003 115.015 6.7792C115.813 6.74915 116.594 7.02032 117.2 7.53867V7.53867ZM110.609 34.3144C111.64 33.0161 112.156 31.1645 112.156 28.7597C112.156 26.3548 111.64 24.5108 110.609 23.2275C110.086 22.5883 109.419 22.0812 108.663 21.7472C107.907 21.4132 107.082 21.2617 106.256 21.305C105.422 21.2598 104.588 21.4077 103.821 21.7372C103.053 22.0666 102.373 22.5687 101.832 23.2041C100.783 24.4719 100.259 26.2912 100.26 28.6622C100.137 30.6531 100.691 32.6273 101.832 34.2652C102.379 34.8867 103.052 35.3855 103.806 35.7287C104.56 36.0719 105.379 36.2517 106.208 36.2563C107.037 36.2609 107.857 36.0901 108.615 35.7552C109.373 35.4204 110.051 34.929 110.605 34.3136L110.609 34.3144Z" fill="#00DD80"/>
<path d="M129.47 38.9449C127.245 37.6467 125.457 35.7175 124.333 33.4027C123.146 30.7498 122.531 27.8776 122.527 24.9723C122.524 22.0669 123.132 19.1933 124.313 16.5376C125.431 14.2261 127.22 12.3033 129.447 11.0187C131.878 9.74786 134.582 9.08398 137.326 9.08398C140.07 9.08398 142.774 9.74786 145.205 11.0187C147.423 12.3079 149.204 14.23 150.318 16.5376C151.5 19.1932 152.109 22.0671 152.105 24.9726C152.101 27.8781 151.485 30.7503 150.296 33.4027C149.176 35.719 147.388 37.6488 145.162 38.9449C142.743 40.2156 140.05 40.8797 137.316 40.8797C134.582 40.8797 131.89 40.2156 129.47 38.9449H129.47ZM144.016 33.4027C145.618 31.4397 146.419 28.625 146.42 24.9585C146.42 21.292 145.619 18.4853 144.016 16.5384C143.162 15.616 142.126 14.8799 140.973 14.3765C139.82 13.8731 138.575 13.6132 137.317 13.6132C136.058 13.6132 134.813 13.8731 133.661 14.3765C132.508 14.8799 131.472 15.616 130.618 16.5384C129.016 18.4909 128.214 21.2976 128.214 24.9585C128.213 28.6194 129.015 31.4341 130.618 33.4027C131.468 34.3315 132.502 35.0734 133.656 35.581C134.809 36.0886 136.056 36.3507 137.317 36.3507C138.577 36.3507 139.824 36.0886 140.978 35.581C142.131 35.0734 143.166 34.3315 144.016 33.4027V33.4027Z" fill="#78849E"/>
<path d="M174.54 18.22C176.145 19.2765 177.416 20.7671 178.204 22.5176C179.109 24.5229 179.556 26.7038 179.513 28.9026C179.562 31.0789 179.114 33.2377 178.204 35.216C177.427 36.9399 176.156 38.3959 174.552 39.4007C172.947 40.4054 171.08 40.914 169.187 40.8624C167.646 40.8896 166.124 40.5317 164.758 39.8212C163.501 39.164 162.46 38.159 161.76 36.9267V46.6081C161.778 46.9716 161.715 47.3345 161.576 47.6708C161.436 48.0071 161.224 48.3084 160.954 48.553C160.354 49.0502 159.589 49.3053 158.811 49.2683C158.018 49.3022 157.243 49.0295 156.647 48.5072C156.371 48.2553 156.154 47.9465 156.01 47.6023C155.865 47.2581 155.798 46.8867 155.812 46.5139V19.5972C155.794 19.2212 155.854 18.8455 155.989 18.494C156.124 18.1425 156.331 17.8229 156.597 17.5556C156.882 17.2954 157.216 17.0942 157.58 16.9635C157.943 16.8329 158.329 16.7754 158.715 16.7944C159.501 16.7591 160.27 17.0323 160.856 17.5556C161.128 17.8194 161.341 18.1378 161.48 18.4897C161.62 18.8417 161.683 19.2192 161.665 19.5972V20.7835C162.348 19.5007 163.4 18.4509 164.686 17.769C166.071 17.0408 167.617 16.674 169.182 16.7027C171.079 16.6723 172.942 17.2 174.54 18.22V18.22ZM171.996 34.3373C173.133 32.7605 173.687 30.84 173.566 28.9018C173.687 26.9122 173.134 24.9398 171.996 23.3012C171.45 22.6783 170.777 22.1782 170.022 21.8341C169.267 21.49 168.447 21.3097 167.617 21.3051C166.787 21.3006 165.966 21.4718 165.207 21.8076C164.449 22.1434 163.77 22.636 163.216 23.2529C162.185 24.5512 161.67 26.4027 161.67 28.8076C161.547 30.7647 162.092 32.7057 163.216 34.314C163.772 34.9246 164.448 35.413 165.203 35.7479C165.958 36.0829 166.775 36.2569 167.601 36.2591C168.428 36.2612 169.245 36.0913 170.002 35.7602C170.759 35.4292 171.438 34.9443 171.996 34.3365V34.3373Z" fill="#78849E"/>
<path d="M196.83 38.4921C196.845 38.837 196.767 39.1798 196.604 39.4844C196.441 39.789 196.199 40.0443 195.904 40.2236C195.096 40.6587 194.174 40.8334 193.263 40.7238L191.977 40.6271C186.65 40.2502 183.986 37.4033 183.986 32.0861V21.7337H181.606C180.9 21.781 180.201 21.5791 179.63 21.1634C179.189 20.7226 178.941 20.1252 178.941 19.5023C178.941 18.8795 179.189 18.282 179.63 17.8412C180.202 17.427 180.901 17.2253 181.606 17.271H183.986V12.9051C183.968 12.5269 184.031 12.1492 184.17 11.7968C184.309 11.4445 184.521 11.1255 184.792 10.861C185.396 10.3342 186.181 10.0629 186.981 10.1048C187.767 10.0676 188.535 10.3391 189.122 10.861C189.395 11.1249 189.608 11.4436 189.748 11.796C189.888 12.1484 189.951 12.5265 189.933 12.9051V17.2694H193.975C194.68 17.2232 195.379 17.425 195.95 17.8396C196.169 18.0574 196.343 18.3163 196.462 18.6014C196.581 18.8864 196.642 19.192 196.642 19.5007C196.642 19.8093 196.581 20.1149 196.462 20.4C196.343 20.685 196.169 20.9439 195.95 21.1617C195.38 21.5774 194.68 21.7793 193.975 21.732H189.933V32.508C189.933 34.85 191.011 36.1005 193.166 36.2595L194.452 36.3537C196.039 36.4479 196.83 37.1632 196.83 38.4921Z" fill="#78849E"/>
<path d="M26.9584 0C12.0713 0 0 12.5367 0 28.0012C0 43.4658 12.0713 56 26.9584 56C41.8455 56 53.9201 43.4633 53.9201 28.0012C53.9201 12.5392 41.8488 0 26.9584 0ZM44.2477 27.8829L29.2804 42.8197C27.7838 44.2822 25.7724 45.1013 23.6776 45.1013C21.5827 45.1013 19.5713 44.2822 18.0748 42.8197L9.6724 34.433C8.20351 32.9674 7.37828 30.9797 7.37828 28.907C7.37828 26.8344 8.20351 24.8466 9.6724 23.3811C11.1413 21.9155 13.1336 21.0921 15.2109 21.0921C17.2882 21.0921 19.2805 21.9155 20.7494 23.3811L23.6738 26.2989L33.1666 16.8276C33.8939 16.1019 34.7574 15.5263 35.7077 15.1335C36.658 14.7408 37.6765 14.5387 38.7051 14.5387C39.7337 14.5387 40.7522 14.7408 41.7025 15.1335C42.6528 15.5263 43.5162 16.1019 44.2436 16.8276C44.9709 17.5533 45.5478 18.4148 45.9414 19.3629C46.3351 20.3111 46.5377 21.3273 46.5377 22.3536C46.5377 23.3798 46.3351 24.396 45.9414 25.3442C45.5478 26.2923 44.9709 27.1539 44.2436 27.8795L44.2477 27.8829Z" fill="#00DD80"/>
<path d="M42.8584 18.4144L42.6628 18.2193C42.1209 17.6783 41.4774 17.2491 40.7692 16.9562C40.061 16.6634 39.3018 16.5127 38.5352 16.5127C37.7685 16.5127 37.0094 16.6634 36.3012 16.9562C35.5929 17.2491 34.9495 17.6783 34.4075 18.2193L24.9917 27.6139L19.3316 33.2612C18.7893 33.8019 18.3592 34.4439 18.0657 35.1506C17.7722 35.8572 17.6211 36.6146 17.6211 37.3795C17.6211 38.1444 17.7722 38.9018 18.0657 39.6085C18.3592 40.3151 18.7893 40.9571 19.3316 41.4978L19.5271 41.6929C20.6224 42.7842 22.1069 43.3971 23.6548 43.3971C25.2026 43.3971 26.6872 42.7842 27.7824 41.6929L31.3678 38.1157L42.8584 26.651C43.4005 26.1103 43.8306 25.4682 44.124 24.7616C44.4175 24.055 44.5685 23.2976 44.5685 22.5327C44.5685 21.7678 44.4175 21.0104 44.124 20.3038C43.8306 19.5972 43.4005 18.9552 42.8584 18.4144V18.4144ZM23.6765 41.9589C22.7641 41.9585 21.8723 41.6883 21.1139 41.1822C20.3554 40.6762 19.7644 39.9572 19.4156 39.116C19.0667 38.2748 18.9757 37.3494 19.154 36.4566C19.3323 35.5638 19.772 34.7439 20.4174 34.1004C21.0628 33.4569 21.8849 33.0189 22.7798 32.8416C23.6747 32.6643 24.6023 32.7558 25.4451 33.1045C26.2879 33.4532 27.0081 34.0434 27.5147 34.8005C28.0214 35.5575 28.2916 36.4475 28.2913 37.3578C28.2906 38.5784 27.8041 39.7487 26.9386 40.6114C26.0732 41.4741 24.8998 41.9585 23.6765 41.958V41.9589Z" fill="#00DD80"/>
</svg>
